<svg width="38" height="38" viewBox="0 0 38 38" fill="none" xmlns="http://www.w3.org/2000/svg">
<path d="M19 36C28.3888 36 36 28.3888 36 19C36 9.61116 28.3888 2 19 2C9.61116 2 2 9.61116 2 19C2 28.3888 9.61116 36 19 36Z" stroke="black" stroke-width="4" stroke-linecap="round" stroke-linejoin="round"/>
<path d="M26.5554 20.8888H11.4443M13.3332 13.3333H13.3521H13.3332ZM24.6666 13.3333H24.6854H24.6666ZM11.4443 20.8888C11.4443 22.8927 12.2404 24.8145 13.6573 26.2314C15.0742 27.6483 16.996 28.4444 18.9999 28.4444C21.0037 28.4444 22.9255 27.6483 24.3425 26.2314C25.7594 24.8145 26.5554 22.8927 26.5554 20.8888H11.4443Z" stroke="black" stroke-width="4" stroke-linecap="round" stroke-linejoin="round"/>
</svg>
