<svg width="47" height="38" viewBox="0 0 47 38" fill="none" xmlns="http://www.w3.org/2000/svg">
<path d="M19 36C28.3891 36 36 28.3891 36 19C36 9.6109 28.3891 2 19 2C9.6109 2 2 9.6109 2 19C2 28.3891 9.6109 36 19 36Z" stroke="black" stroke-width="4" stroke-linejoin="round"/>
<path d="M13.05 13.8999V14.7499M24.95 13.8999V14.7499V13.8999Z" stroke="black" stroke-width="4" stroke-linecap="round" stroke-linejoin="round"/>
<path d="M22.4001 25.7999C22.4001 23.9221 20.8779 22.3999 19.0001 22.3999C17.1223 22.3999 15.6001 23.9221 15.6001 25.7999C15.6001 27.6777 17.1223 29.1999 19.0001 29.1999C20.8779 29.1999 22.4001 27.6777 22.4001 25.7999Z" stroke="black" stroke-width="4" stroke-linecap="round" stroke-linejoin="round"/>
<path d="M44 27.0503C45.3267 27.0503 46.4 25.9293 46.4 24.6157V4.50582C46.4 3.12257 45.3267 2 44 2C42.6732 2 41.6 3.12257 41.6 4.50582V24.4756C41.6 25.9309 42.6732 27.0503 44 27.0503ZM44 30.8079C42.3432 30.8079 41 32.2099 41 33.9392C41 35.6684 42.3432 37 44 37C45.6568 37 47 35.5987 47 33.9392C47 32.2796 45.6568 30.8079 44 30.8079Z" fill="black"/>
</svg>
