<svg width="19" height="21" viewBox="0 0 19 21" fill="none" xmlns="http://www.w3.org/2000/svg">
<path d="M12.2233 9.76499C12.7031 9.16854 12.9671 8.42884 12.9728 7.66499C12.9728 6.7488 12.6069 5.87014 11.9556 5.22229C11.3044 4.57445 10.421 4.2105 9.5 4.2105C8.57896 4.2105 7.69565 4.57445 7.04437 5.22229C6.3931 5.87014 6.02722 6.7488 6.02722 7.66499C6.03294 8.42884 6.29693 9.16854 6.77667 9.76499C5.83577 10.3346 5.09759 11.1827 4.66556 12.1905C4.60509 12.3184 4.57119 12.4571 4.56589 12.5983C4.56059 12.7395 4.584 12.8803 4.63472 13.0123C4.68544 13.1443 4.76242 13.2648 4.86105 13.3665C4.95969 13.4682 5.07794 13.549 5.20874 13.6042C5.33953 13.6593 5.48017 13.6876 5.62223 13.6874C5.76428 13.6872 5.90484 13.6585 6.03547 13.603C6.16611 13.5475 6.28413 13.4663 6.38247 13.3643C6.48081 13.2623 6.55744 13.1416 6.60778 13.0095C6.85038 12.4454 7.25332 11.964 7.76712 11.6245C8.28091 11.285 8.8832 11.1022 9.5 11.0985C10.1186 11.1002 10.7232 11.282 11.239 11.6217C11.7549 11.9613 12.1595 12.4437 12.4028 13.0095C12.4836 13.1993 12.6188 13.3612 12.7914 13.4751C12.9641 13.589 13.1667 13.6498 13.3739 13.65C13.5151 13.6474 13.6547 13.6189 13.7856 13.566C14.043 13.4572 14.2465 13.2513 14.3514 12.9934C14.4562 12.7355 14.454 12.4467 14.345 12.1905C13.9102 11.1812 13.1682 10.3329 12.2233 9.76499ZM9.5 8.99849C9.23024 8.99848 8.96656 8.91877 8.74241 8.76947C8.51826 8.62016 8.34375 8.408 8.24101 8.15988C8.13826 7.91177 8.11192 7.63889 8.16532 7.37586C8.21872 7.11283 8.34946 6.8715 8.54095 6.6825C8.73244 6.49349 8.97605 6.36532 9.24088 6.31425C9.50571 6.26318 9.77982 6.29151 10.0284 6.39564C10.2771 6.49977 10.489 6.67501 10.6373 6.89913C10.7857 7.12326 10.8638 7.38616 10.8617 7.65449C10.8589 8.01191 10.7142 8.35374 10.4591 8.60549C10.2041 8.85724 9.85931 8.9985 9.5 8.99849ZM15.8333 0H3.16667C2.32681 0 1.52136 0.331874 0.927495 0.922613C0.33363 1.51335 0 2.31457 0 3.15V14.7C0 15.5354 0.33363 16.3366 0.927495 16.9274C1.52136 17.5181 2.32681 17.85 3.16667 17.85H5.90056L8.75056 20.6955C8.84919 20.7928 8.96616 20.8698 9.09477 20.922C9.22337 20.9743 9.36108 21.0008 9.5 21C9.75159 21 9.99491 20.9106 10.1861 20.748L13.585 17.85H15.8333C16.6732 17.85 17.4786 17.5181 18.0725 16.9274C18.6664 16.3366 19 15.5354 19 14.7V3.15C19 2.31457 18.6664 1.51335 18.0725 0.922613C17.4786 0.331874 16.6732 0 15.8333 0ZM16.8889 14.7C16.8889 14.9785 16.7777 15.2455 16.5797 15.4424C16.3818 15.6394 16.1133 15.75 15.8333 15.75H13.1944C12.9429 15.75 12.6995 15.8393 12.5083 16.002L9.55278 18.522L7.08278 16.0545C6.98415 15.9572 6.86717 15.8802 6.73857 15.8279C6.60996 15.7757 6.47225 15.7492 6.33333 15.75H3.16667C2.88672 15.75 2.61823 15.6394 2.42028 15.4424C2.22232 15.2455 2.11111 14.9785 2.11111 14.7V3.15C2.11111 2.87152 2.22232 2.60445 2.42028 2.40754C2.61823 2.21062 2.88672 2.1 3.16667 2.1H15.8333C16.1133 2.1 16.3818 2.21062 16.5797 2.40754C16.7777 2.60445 16.8889 2.87152 16.8889 3.15V14.7Z" fill="black"/>
</svg>
