<svg width="21" height="23" viewBox="0 0 21 23" fill="none" xmlns="http://www.w3.org/2000/svg">
<path d="M15 11.0941C16.5913 11.0941 18.1174 11.7213 19.2426 12.8377C20.3679 13.9541 21 15.4682 21 17.0471C21 18.6259 20.3679 20.14 19.2426 21.2564C18.1174 22.3728 16.5913 23 15 23C13.4087 23 11.8826 22.3728 10.7574 21.2564C9.63214 20.14 9 18.6259 9 17.0471C9 15.4682 9.63214 13.9541 10.7574 12.8377C11.8826 11.7213 13.4087 11.0941 15 11.0941ZM10.0909 7.54961e-09C10.9965 -5.88223e-05 11.8678 0.343706 12.5261 0.960774C13.1843 1.57784 13.5796 2.42143 13.6309 3.31849L13.6364 3.51765H19.3636C19.5709 3.51771 19.7705 3.59584 19.922 3.73625C20.0734 3.87666 20.1655 4.06889 20.1797 4.27408C20.1938 4.47928 20.1289 4.68214 19.9981 4.84169C19.8673 5.00124 19.6803 5.10557 19.4749 5.1336L19.3636 5.14118H18.4953L17.9498 10.6471C17.4411 10.416 16.9064 10.246 16.3571 10.1406L16.8513 5.14118H3.32945L4.71164 19.0732C4.74224 19.3841 4.88032 19.6749 5.10243 19.8962C5.32454 20.1176 5.617 20.2559 5.93018 20.2876L6.06873 20.2941H8.70873C9.02073 20.8905 9.41782 21.4371 9.88255 21.9176H6.06873C5.35687 21.9176 4.66821 21.6665 4.12582 21.209C3.58344 20.7516 3.22267 20.1177 3.108 19.4207L3.08291 19.2323L1.68545 5.14118H0.818182C0.620468 5.14117 0.429445 5.07013 0.280439 4.94119C0.131434 4.81226 0.0345254 4.63415 0.00763633 4.43981L0 4.32941C8.33771e-06 4.13325 0.0716102 3.94372 0.201564 3.79589C0.331518 3.64805 0.511032 3.5519 0.706909 3.52522L0.818182 3.51765H6.54545C6.54545 2.58471 6.91899 1.68998 7.58389 1.03029C8.2488 0.370608 9.1506 7.54961e-09 10.0909 7.54961e-09ZM11.9629 13.8963L11.8865 13.958L11.8244 14.0338C11.7615 14.1242 11.7278 14.2314 11.7278 14.3412C11.7278 14.451 11.7615 14.5582 11.8244 14.6486L11.8865 14.7243L14.2287 17.0471L11.8865 19.3698L11.8244 19.4456C11.7615 19.5359 11.7278 19.6431 11.7278 19.7529C11.7278 19.8627 11.7615 19.97 11.8244 20.0603L11.8865 20.1361L11.9629 20.1978C12.054 20.2602 12.1621 20.2936 12.2727 20.2936C12.3834 20.2936 12.4915 20.2602 12.5825 20.1978L12.6589 20.1361L15 17.8123L17.3411 20.1361L17.4175 20.1978C17.5085 20.2602 17.6166 20.2936 17.7273 20.2936C17.8379 20.2936 17.946 20.2602 18.0371 20.1978L18.1135 20.1361L18.1756 20.0603C18.2385 19.97 18.2722 19.8627 18.2722 19.7529C18.2722 19.6431 18.2385 19.5359 18.1756 19.4456L18.1135 19.3698L15.7713 17.0471L18.1135 14.7243L18.1756 14.6486C18.2385 14.5582 18.2722 14.451 18.2722 14.3412C18.2722 14.2314 18.2385 14.1242 18.1756 14.0338L18.1135 13.958L18.0371 13.8963C17.946 13.834 17.8379 13.8006 17.7273 13.8006C17.6166 13.8006 17.5085 13.834 17.4175 13.8963L17.3411 13.958L15 16.2818L12.6589 13.958L12.5825 13.8963C12.5049 13.843 12.4146 13.8105 12.3205 13.8022C12.2264 13.7938 12.1318 13.8099 12.0458 13.8487L11.9629 13.8963ZM10.0909 1.62353C9.61179 1.62355 9.1502 1.8023 8.79776 2.12431C8.44531 2.44632 8.22779 2.88804 8.18836 3.36179L8.18182 3.51765H12C12 3.0153 11.7989 2.53352 11.4408 2.1783C11.0828 1.82309 10.5972 1.62353 10.0909 1.62353Z" fill="black"/>
</svg>
