<svg width="22" height="17" viewBox="0 0 22 17" fill="none" xmlns="http://www.w3.org/2000/svg">
<path d="M19.125 0H4.25C3.07806 0 2.125 0.953062 2.125 2.125V7.4375H4.25V4.25L11.05 9.35C11.234 9.48777 11.4576 9.56223 11.6875 9.56223C11.9174 9.56223 12.141 9.48777 12.325 9.35L19.125 4.25V13.8125H10.625V15.9375H19.125C20.2969 15.9375 21.25 14.9844 21.25 13.8125V2.125C21.25 0.953062 20.2969 0 19.125 0ZM11.6875 7.17188L4.95762 2.125H18.4174L11.6875 7.17188Z" fill="black"/>
<path d="M0 8.5H7.4375V10.625H0V8.5ZM2.125 11.6875H8.5V13.8125H2.125V11.6875ZM5.3125 14.875H9.5625V17H5.3125V14.875Z" fill="black"/>
</svg>
