<svg width="17" height="23" viewBox="0 0 17 23" fill="none" xmlns="http://www.w3.org/2000/svg">
<path d="M9.91667 5.75V0H2.125C0.95138 0 0 0.965371 0 2.15625V20.8438C0 22.0342 0.95138 23 2.125 23H14.875C16.0486 23 17 22.0346 17 20.8438V7.1875H11.3732C10.5497 7.1875 9.91667 6.54512 9.91667 5.75ZM12.0461 11.8773L9.91667 15.4531L12.0855 19.0294C12.3781 19.5096 12.0372 20.125 11.4839 20.125H10.3138C10.1928 20.125 10.0738 20.0935 9.96818 20.0336C9.86256 19.9737 9.77381 19.8874 9.71036 19.7828L8.5 17.7891L7.29096 19.7827C7.16302 19.9947 6.93281 20.125 6.68932 20.125H5.51615C4.96187 20.125 4.62232 19.5082 4.91273 19.0294L7.08333 15.4531L4.91406 11.8773C4.62187 11.3967 4.96276 10.7812 5.51615 10.7812H6.68622C6.93224 10.7812 7.16036 10.9108 7.28964 11.1232L8.5 13.1172L9.70904 11.1231C9.83698 10.9115 10.0672 10.7812 10.3107 10.7812H11.4808C12.0372 10.7812 12.3781 11.3967 12.0461 11.8773ZM11.3333 0V5.75H17L11.3333 0Z" fill="#F9F6F2"/>
</svg>
