<svg width="29" height="29" viewBox="0 0 29 29" fill="none" xmlns="http://www.w3.org/2000/svg">
<path d="M10.8757 6.0417C10.5552 6.0417 10.2478 6.169 10.0212 6.39561C9.79462 6.62222 9.66732 6.92956 9.66732 7.25003C9.66732 7.5705 9.79462 7.87784 10.0212 8.10445C10.2478 8.33106 10.5552 8.45836 10.8757 8.45836C11.1961 8.45836 11.5035 8.33106 11.7301 8.10445C11.9567 7.87784 12.084 7.5705 12.084 7.25003C12.084 6.92956 11.9567 6.62222 11.7301 6.39561C11.5035 6.169 11.1961 6.0417 10.8757 6.0417ZM7.45607 6.0417C7.70571 5.33418 8.16867 4.72151 8.78113 4.28815C9.39358 3.85479 10.1254 3.62207 10.8757 3.62207C11.6259 3.62207 12.3577 3.85479 12.9702 4.28815C13.5826 4.72151 14.0456 5.33418 14.2952 6.0417H22.959C23.2795 6.0417 23.5868 6.169 23.8134 6.39561C24.04 6.62222 24.1673 6.92956 24.1673 7.25003C24.1673 7.5705 24.04 7.87784 23.8134 8.10445C23.5868 8.33106 23.2795 8.45836 22.959 8.45836H14.2952C14.0456 9.16588 13.5826 9.77855 12.9702 10.2119C12.3577 10.6453 11.6259 10.878 10.8757 10.878C10.1254 10.878 9.39358 10.6453 8.78113 10.2119C8.16867 9.77855 7.70571 9.16588 7.45607 8.45836H6.04232C5.72185 8.45836 5.4145 8.33106 5.1879 8.10445C4.96129 7.87784 4.83398 7.5705 4.83398 7.25003C4.83398 6.92956 4.96129 6.62222 5.1879 6.39561C5.4145 6.169 5.72185 6.0417 6.04232 6.0417H7.45607ZM18.1257 13.2917C17.8052 13.2917 17.4978 13.419 17.2712 13.6456C17.0446 13.8722 16.9173 14.1796 16.9173 14.5C16.9173 14.8205 17.0446 15.1278 17.2712 15.3544C17.4978 15.5811 17.8052 15.7084 18.1257 15.7084C18.4461 15.7084 18.7535 15.5811 18.9801 15.3544C19.2067 15.1278 19.334 14.8205 19.334 14.5C19.334 14.1796 19.2067 13.8722 18.9801 13.6456C18.7535 13.419 18.4461 13.2917 18.1257 13.2917ZM14.7061 13.2917C14.9557 12.5842 15.4187 11.9715 16.0311 11.5381C16.6436 11.1048 17.3754 10.8721 18.1257 10.8721C18.8759 10.8721 19.6077 11.1048 20.2202 11.5381C20.8326 11.9715 21.2956 12.5842 21.5452 13.2917H22.959C23.2795 13.2917 23.5868 13.419 23.8134 13.6456C24.04 13.8722 24.1673 14.1796 24.1673 14.5C24.1673 14.8205 24.04 15.1278 23.8134 15.3544C23.5868 15.5811 23.2795 15.7084 22.959 15.7084H21.5452C21.2956 16.4159 20.8326 17.0285 20.2202 17.4619C19.6077 17.8953 18.8759 18.128 18.1257 18.128C17.3754 18.128 16.6436 17.8953 16.0311 17.4619C15.4187 17.0285 14.9557 16.4159 14.7061 15.7084H6.04232C5.72185 15.7084 5.4145 15.5811 5.1879 15.3544C4.96129 15.1278 4.83398 14.8205 4.83398 14.5C4.83398 14.1796 4.96129 13.8722 5.1879 13.6456C5.4145 13.419 5.72185 13.2917 6.04232 13.2917H14.7061ZM10.8757 20.5417C10.5552 20.5417 10.2478 20.669 10.0212 20.8956C9.79462 21.1222 9.66732 21.4296 9.66732 21.75C9.66732 22.0705 9.79462 22.3778 10.0212 22.6045C10.2478 22.8311 10.5552 22.9584 10.8757 22.9584C11.1961 22.9584 11.5035 22.8311 11.7301 22.6045C11.9567 22.3778 12.084 22.0705 12.084 21.75C12.084 21.4296 11.9567 21.1222 11.7301 20.8956C11.5035 20.669 11.1961 20.5417 10.8757 20.5417ZM7.45607 20.5417C7.70571 19.8342 8.16867 19.2215 8.78113 18.7881C9.39358 18.3548 10.1254 18.1221 10.8757 18.1221C11.6259 18.1221 12.3577 18.3548 12.9702 18.7881C13.5826 19.2215 14.0456 19.8342 14.2952 20.5417H22.959C23.2795 20.5417 23.5868 20.669 23.8134 20.8956C24.04 21.1222 24.1673 21.4296 24.1673 21.75C24.1673 22.0705 24.04 22.3778 23.8134 22.6045C23.5868 22.8311 23.2795 22.9584 22.959 22.9584H14.2952C14.0456 23.6659 13.5826 24.2785 12.9702 24.7119C12.3577 25.1453 11.6259 25.378 10.8757 25.378C10.1254 25.378 9.39358 25.1453 8.78113 24.7119C8.16867 24.2785 7.70571 23.6659 7.45607 22.9584H6.04232C5.72185 22.9584 5.4145 22.8311 5.1879 22.6045C4.96129 22.3778 4.83398 22.0705 4.83398 21.75C4.83398 21.4296 4.96129 21.1222 5.1879 20.8956C5.4145 20.669 5.72185 20.5417 6.04232 20.5417H7.45607Z" fill="#F9F6F2"/>
</svg>
