<svg width="19" height="19" viewBox="0 0 19 19" fill="none" xmlns="http://www.w3.org/2000/svg">
<path fill-rule="evenodd" clip-rule="evenodd" d="M9.5 19C14.7469 19 19 14.7469 19 9.5C19 4.25315 14.7469 0 9.5 0C4.25315 0 0 4.25315 0 9.5C0 14.7469 4.25315 19 9.5 19ZM4.8393 15.504L15.504 4.8393C16.6407 6.30151 17.2043 8.12848 17.089 9.97696C16.9737 11.8254 16.1874 13.5682 14.8778 14.8778C13.5682 16.1874 11.8254 16.9737 9.97696 17.089C8.12848 17.2043 6.30151 16.6407 4.8393 15.504ZM3.496 14.1607C2.3593 12.6985 1.79565 10.8715 1.91096 9.02304C2.02627 7.17457 2.81259 5.43181 4.1222 4.1222C5.43181 2.81259 7.17457 2.02627 9.02304 1.91096C10.8715 1.79565 12.6985 2.3593 14.1607 3.496L3.496 14.1607Z" fill="black"/>
</svg>
