<svg width="32" height="41" viewBox="0 0 32 41" fill="none" xmlns="http://www.w3.org/2000/svg">
<path d="M16.0026 41C18.3229 41 20.2213 39.1077 20.2213 36.7949H11.7839C11.7839 37.9101 12.2284 38.9797 13.0195 39.7683C13.8107 40.557 14.8837 41 16.0026 41ZM28.6588 28.3846V17.8718C28.6588 11.4169 25.1994 6.01333 19.1666 4.58359V3.15385C19.1666 1.40872 17.7534 0 16.0026 0C14.2518 0 12.8386 1.40872 12.8386 3.15385V4.58359C6.7847 6.01333 3.34645 11.3959 3.34645 17.8718V28.3846L0.625377 31.0969C-0.703519 32.4215 0.224598 34.6923 2.10193 34.6923H29.8822C31.7595 34.6923 32.7087 32.4215 31.3798 31.0969L28.6588 28.3846Z" fill="#C4C4C4"/>
</svg>
