<svg width="13" height="17" viewBox="0 0 13 17" fill="none" xmlns="http://www.w3.org/2000/svg">
<path fill-rule="evenodd" clip-rule="evenodd" d="M2.16667 0C1.59203 0 1.04093 0.223883 0.634602 0.622398C0.228273 1.02091 0 1.56141 0 2.125V14.875C0 15.4386 0.228273 15.9791 0.634602 16.3776C1.04093 16.7761 1.59203 17 2.16667 17H10.8333C11.408 17 11.9591 16.7761 12.3654 16.3776C12.7717 15.9791 13 15.4386 13 14.875V5.75238C12.9999 5.18884 12.7715 4.64842 12.3652 4.25L8.66667 0.622625C8.26043 0.224083 7.70942 0.000120354 7.13483 0H2.16667ZM4.33333 10.625C4.33333 10.3432 4.2192 10.073 4.01603 9.8737C3.81287 9.67444 3.53732 9.5625 3.25 9.5625C2.96268 9.5625 2.68713 9.67444 2.48397 9.8737C2.2808 10.073 2.16667 10.3432 2.16667 10.625V13.8125C2.16667 14.0943 2.2808 14.3645 2.48397 14.5638C2.68713 14.7631 2.96268 14.875 3.25 14.875C3.53732 14.875 3.81287 14.7631 4.01603 14.5638C4.2192 14.3645 4.33333 14.0943 4.33333 13.8125V10.625ZM6.5 7.4375C6.78732 7.4375 7.06287 7.54944 7.26603 7.7487C7.4692 7.94796 7.58333 8.21821 7.58333 8.5V13.8125C7.58333 14.0943 7.4692 14.3645 7.26603 14.5638C7.06287 14.7631 6.78732 14.875 6.5 14.875C6.21268 14.875 5.93713 14.7631 5.73397 14.5638C5.5308 14.3645 5.41667 14.0943 5.41667 13.8125V8.5C5.41667 8.21821 5.5308 7.94796 5.73397 7.7487C5.93713 7.54944 6.21268 7.4375 6.5 7.4375ZM10.8333 6.375C10.8333 6.09321 10.7192 5.82296 10.516 5.6237C10.3129 5.42444 10.0373 5.3125 9.75 5.3125C9.46268 5.3125 9.18713 5.42444 8.98397 5.6237C8.7808 5.82296 8.66667 6.09321 8.66667 6.375V13.8125C8.66667 14.0943 8.7808 14.3645 8.98397 14.5638C9.18713 14.7631 9.46268 14.875 9.75 14.875C10.0373 14.875 10.3129 14.7631 10.516 14.5638C10.7192 14.3645 10.8333 14.0943 10.8333 13.8125V6.375Z" fill="#F9F6F2"/>
</svg>
